<svg xmlns="http://www.w3.org/2000/svg" viewBox="0 0 51.67 51.7"><defs><style>.cls-1{fill:#ededed;opacity:0.7;}.cls-2{fill:#2f5830;}.cls-3{fill:#fcd842;}</style></defs><title>vacum-icon</title><g id="Layer_2" data-name="Layer 2"><g id="Layer_1-2" data-name="Layer 1"><circle class="cls-1" cx="21.1" cy="21.1" r="21.1"/><polygon class="cls-2" points="36.05 32.2 33.8 37.3 30.8 37.3 30.8 32.2 36.05 32.2"/><path class="cls-2" d="M45.46,39.28a6.21,6.21,0,1,0,6.21,6.21A6.21,6.21,0,0,0,45.46,39.28Zm0,9.94a3.74,3.74,0,1,1,3.74-3.73A3.73,3.73,0,0,1,45.46,49.22Z"/><path class="cls-2" d="M39.21,41.88c0-7.53,2.48-11.77,4.59-13.1A2.23,2.23,0,0,1,45,28.37a3.42,3.42,0,0,1,.46,0c.68.13,1.83.67,1.83,2.91V38.5a7.18,7.18,0,0,1,2,.88V24.27c0-2.21-.94-4.05-3.53-4.39a6.71,6.71,0,0,0-.93-.06,5.57,5.57,0,0,0-2.2.59c-4.19,1.94-10.86,8.83-10.86,23.3a4.46,4.46,0,0,0,4.46,4.45h2.52a7.17,7.17,0,0,1,.45-6.28Z"/><path class="cls-3" d="M45.24,29.41l-.28,0a1.3,1.3,0,0,0-.62.24c-1.42.91-3.78,4.18-4.08,10.86a7.19,7.19,0,0,1,5.2-2.23,6.49,6.49,0,0,1,.77.05v-7C46.23,30.17,45.9,29.53,45.24,29.41Z"/><path class="cls-3" d="M17.76,51.7H15.22V18.78a5.72,5.72,0,0,1,11.43,0V30.49H24.11V18.78a3.18,3.18,0,1,0-6.35,0Z"/><path class="cls-3" d="M29.83,36.09a5.73,5.73,0,0,1-5.72-5.72h2.54a3.18,3.18,0,0,0,3.18,3.18Z"/><path class="cls-2" d="M21.64,47H11.33A4.67,4.67,0,0,0,6.67,51.7H26.3A4.66,4.66,0,0,0,21.64,47Z"/><rect class="cls-2" x="13.72" y="44.4" width="5.53" height="3.32"/></g></g></svg>