<svg xmlns="http://www.w3.org/2000/svg" viewBox="0 0 54.86 49.96"><defs><style>.cls-1{fill:#ededed;opacity:0.7;}.cls-2{fill:#2f5830;}.cls-3{fill:#fcd842;}</style></defs><title>wb-icon</title><g id="Layer_2" data-name="Layer 2"><g id="Layer_1-2" data-name="Layer 1"><circle class="cls-1" cx="21.1" cy="21.1" r="21.1"/><path class="cls-2" d="M21.06,24.38a1.77,1.77,0,1,0,2.49.31A1.78,1.78,0,0,0,21.06,24.38Zm1.82,2.41a1.4,1.4,0,1,1,.24-2A1.39,1.39,0,0,1,22.88,26.79Z"/><path class="cls-2" d="M49.19,24.38a1.77,1.77,0,0,0,2.17,2.8,1.77,1.77,0,0,0-2.17-2.8ZM51,26.79a1.4,1.4,0,1,1,.25-2A1.39,1.39,0,0,1,51,26.79Z"/><path class="cls-3" d="M11.9,20.34a3,3,0,1,0,3.83,1.88A3,3,0,0,0,11.9,20.34Zm.89,4.24a1.79,1.79,0,1,1,1.12-2.27A1.8,1.8,0,0,1,12.79,24.58Z"/><path class="cls-3" d="M26.68,32.93h.18a3.54,3.54,0,0,0,1.85-.43,10.15,10.15,0,0,1,8.53,0,4.22,4.22,0,0,0,3.71,0,9.46,9.46,0,0,1,4.27-.94h.07V19.43h7.57V12.62H41.4a5.42,5.42,0,1,1-10.83,0H19.11v6.81h7.57Z"/><path class="cls-2" d="M54.05,27.58a1.08,1.08,0,0,0-1.31.78c0,.06-.75,2.87-1.67,6.38a5.3,5.3,0,0,1-2.33-.58,8.36,8.36,0,0,0-7.05,0,6,6,0,0,1-5.19,0,8.36,8.36,0,0,0-7,0,5.29,5.29,0,0,1-2.59.59,5.31,5.31,0,0,1-2.6-.59,7.65,7.65,0,0,0-3.52-.78h-.08c-.75-2.85-1.3-5-1.32-5a1.07,1.07,0,1,0-2.08.54c0,.12,3.26,12.53,4.71,17.78.8,2.85,2.55,3.28,3.53,3.28H46.58c1,0,2.74-.43,3.53-3.28C51.57,41.43,54.79,29,54.82,28.9A1.08,1.08,0,0,0,54.05,27.58ZM48.89,42.94a3.85,3.85,0,0,1-1.77-.55,6.53,6.53,0,0,0-6.37,0,4.27,4.27,0,0,1-4.23,0,6.53,6.53,0,0,0-6.37,0,4.27,4.27,0,0,1-4.23,0,6.12,6.12,0,0,0-3.1-.83c-.16-.59-.32-1.2-.49-1.82a1.91,1.91,0,0,1,.72-.14,5.78,5.78,0,0,1,3.12.82,4.19,4.19,0,0,0,4.15,0,6.35,6.35,0,0,1,6.24,0,4.19,4.19,0,0,0,4.15,0,6.35,6.35,0,0,1,6.24,0A9.31,9.31,0,0,0,49,41.2l.33.07C49.19,41.85,49,42.41,48.89,42.94Z"/></g></g></svg>