<svg xmlns="http://www.w3.org/2000/svg" viewBox="0 0 45.45 57.47"><defs><style>.cls-1{fill:#ededed;opacity:0.7;}.cls-2{fill:#fcd842;}.cls-3{fill:#2f5830;}</style></defs><title>wc-icon</title><g id="Layer_2" data-name="Layer 2"><g id="Layer_1-2" data-name="Layer 1"><circle class="cls-1" cx="21.1" cy="21.1" r="21.1"/><path class="cls-2" d="M38,24.78H37.7s.14-3.93-3.13-4.83v-.27c3.27-.9,3.13-4.83,3.13-4.83H38s-.15,3.93,3.12,4.83V20C37.84,20.85,38,24.78,38,24.78Z"/><path class="cls-2" d="M44,27.61h-.13s.07-1.83-1.46-2.26v-.12c1.53-.42,1.46-2.25,1.46-2.25H44s-.06,1.83,1.46,2.25v.12C43.93,25.78,44,27.61,44,27.61Z"/><path class="cls-3" d="M26.43,34.46H44.56a13,13,0,0,1-6.72,11.37V57.47H12.25V50.9h13V45.83A13.08,13.08,0,0,1,20.36,41H12.25V34.46H26.43Z"/><rect class="cls-2" x="20.33" y="29.92" width="24.22" height="2.63"/><polygon class="cls-3" points="13.39 11.71 13.39 9.65 18.3 9.65 18.3 11.71 21.1 11.71 19.34 32.55 12.25 32.55 10.58 11.71 13.39 11.71"/></g></g></svg>