<svg xmlns="http://www.w3.org/2000/svg" viewBox="0 0 49.95 56.49"><defs><style>.cls-1{fill:#ededed;opacity:0.7;}.cls-2{fill:#2f5830;}.cls-3{fill:#fcd842;}</style></defs><title>wn-icon</title><g id="Layer_2" data-name="Layer 2"><g id="Layer_1-2" data-name="Layer 1"><circle class="cls-1" cx="21.1" cy="21.1" r="21.1"/><path class="cls-2" d="M49.87,14.29a1,1,0,0,0-.23-.34,1,1,0,0,0-.74-.31H15.36a1.07,1.07,0,0,0-.75.31,1.13,1.13,0,0,0-.23.34,1.07,1.07,0,0,0-.08.41v5.4H50V14.7A1.07,1.07,0,0,0,49.87,14.29ZM24.34,18.63H16.1v-3.1h8.24Zm5.21-.6a1,1,0,1,1,.95-1A1,1,0,0,1,29.55,18Zm4.9,0a1,1,0,1,1,.95-1A.95.95,0,0,1,34.45,18Zm4.89,0a1,1,0,1,1,.95-1A1,1,0,0,1,39.34,18Zm4.9,0a1,1,0,1,1,.95-1A.95.95,0,0,1,44.24,18Z"/><path class="cls-2" d="M14.22,55.43a1.05,1.05,0,0,0,1.06,1.06H48.82a1.05,1.05,0,0,0,1-1.06V21.6H14.22Zm18.08-29A12.38,12.38,0,1,1,19.92,38.77,12.4,12.4,0,0,1,32.3,26.39Z"/><path class="cls-3" d="M32.3,49.21A9.9,9.9,0,0,0,34.35,49l.16,0,.65-.17c.22-.06.44-.14.66-.22l.31-.11.51-.22.21-.1c.26-.13.52-.26.76-.41l.36-.21.31-.21A10.53,10.53,0,0,0,41.86,43a10.25,10.25,0,0,0,.86-3.83c0-.12,0-.24,0-.35a10.44,10.44,0,0,0-20.88,0A10.84,10.84,0,0,0,22,40.39,10.44,10.44,0,0,0,32.3,49.21ZM22.61,38.6a12.3,12.3,0,0,1,1.25.69,6.24,6.24,0,0,0,3.6,1A6.88,6.88,0,0,0,31.61,39,6.16,6.16,0,0,1,35,38c3.37,0,3.75,1.8,6.44,2.2A9.73,9.73,0,0,1,41,42c-.06.15-.14.3-.21.46l-.11-.05a9.64,9.64,0,0,1-1-.57,8.16,8.16,0,0,0-8.93,0,5.13,5.13,0,0,1-3.13,1,5.11,5.11,0,0,1-3.11-.95L23,41A9.76,9.76,0,0,1,22.61,38.6Zm4.93,5.49A6.17,6.17,0,0,0,31,43.16a6.92,6.92,0,0,1,4.15-1.36c2.66,0,3.46,1.12,5,1.8a10.76,10.76,0,0,1-.7.93A9.52,9.52,0,0,1,23.76,43,6.42,6.42,0,0,0,27.54,44.09Z"/></g></g></svg>